<?xml version="1.0" encoding="UTF-8" standalone="no"?>
<!-- Created with Inkscape (http://www.inkscape.org/) -->

<svg
   width="55mm"
   height="55mm"
   viewBox="0 0 55 55"
   version="1.1"
   id="svg1"
   inkscape:version="1.3.2 (091e20e, 2023-11-25, custom)"
   sodipodi:docname="logo_grey.svg"
   xmlns:inkscape="http://www.inkscape.org/namespaces/inkscape"
   xmlns:sodipodi="http://sodipodi.sourceforge.net/DTD/sodipodi-0.dtd"
   xmlns="http://www.w3.org/2000/svg"
   xmlns:svg="http://www.w3.org/2000/svg">
  <sodipodi:namedview
     id="namedview1"
     pagecolor="#ffffff"
     bordercolor="#000000"
     borderopacity="0.25"
     inkscape:showpageshadow="2"
     inkscape:pageopacity="0.0"
     inkscape:pagecheckerboard="0"
     inkscape:deskcolor="#d1d1d1"
     inkscape:document-units="mm"
     showgrid="false"
     inkscape:zoom="2"
     inkscape:cx="58.5"
     inkscape:cy="78.75"
     inkscape:window-width="1920"
     inkscape:window-height="1057"
     inkscape:window-x="-8"
     inkscape:window-y="-8"
     inkscape:window-maximized="1"
     inkscape:current-layer="layer1">
    <inkscape:grid
       id="grid1"
       units="mm"
       originx="-121"
       originy="-77.412743"
       spacingx="0.99999998"
       spacingy="1"
       empcolor="#0099e5"
       empopacity="0.30196078"
       color="#0099e5"
       opacity="0.14901961"
       empspacing="5"
       dotted="false"
       gridanglex="30"
       gridanglez="30"
       visible="false" />
  </sodipodi:namedview>
  <defs
     id="defs1">
    <inkscape:path-effect
       effect="fillet_chamfer"
       id="path-effect26"
       is_visible="true"
       lpeversion="1"
       nodesatellites_param="F,0,0,1,0,49.632344,0,1 @ F,0,0,1,0,0,0,1 @ F,0,0,1,0,0,0,1 @ F,0,0,1,0,0,0,1 @ F,0,1,1,0,49.632344,0,1 @ F,0,0,1,0,0,0,1"
       radius="0"
       unit="px"
       method="auto"
       mode="F"
       chamfer_steps="1"
       flexible="false"
       use_knot_distance="true"
       apply_no_radius="true"
       apply_with_radius="true"
       only_selected="false"
       hide_knots="false" />
    <inkscape:path-effect
       effect="fillet_chamfer"
       id="path-effect26-6"
       is_visible="true"
       lpeversion="1"
       nodesatellites_param="F,0,0,1,0,49.632344,0,1 @ F,0,0,1,0,0,0,1 @ F,0,0,1,0,0,0,1 @ F,0,0,1,0,0,0,1 @ F,0,1,1,0,49.632344,0,1 @ F,0,0,1,0,0,0,1"
       radius="0"
       unit="px"
       method="auto"
       mode="F"
       chamfer_steps="1"
       flexible="false"
       use_knot_distance="true"
       apply_no_radius="true"
       apply_with_radius="true"
       only_selected="false"
       hide_knots="false" />
  </defs>
  <g
     inkscape:groupmode="layer"
     id="layer9"
     inkscape:label="Camada 3"
     transform="translate(-121,-77.412743)">
    <rect
       x="121"
       y="77.412743"
       width="55"
       height="55"
       fill="#3b3838"
       id="rect1"
       style="stroke-width:0.23326" />
  </g>
  <g
     inkscape:groupmode="layer"
     id="layer8"
     inkscape:label="Camada 2"
     transform="translate(-121,-77.412743)">
    <path
       id="path23"
       style="display:inline;fill:none;stroke:#ffffff;stroke-width:4.56863;stroke-dasharray:none;stroke-opacity:1"
       inkscape:transform-center-x="-2.0141189e-06"
       inkscape:transform-center-y="-1.6337537e-05"
       d="m 95.448583,95.012161 -0.05108,-34.438747 49.728828,-17.417631 49.85358,17.194148 0.0511,34.43861 a 70.206078,70.206078 125.17349 0 1 -46.69219,66.255439 l -2.96302,1.05322 -3.00886,-1.05334 A 70.071194,70.071194 54.604576 0 1 95.448583,95.012161 Z"
       sodipodi:nodetypes="ccccccc"
       transform="matrix(0.41347187,0,0,0.41347187,88.458474,62.566022)"
       inkscape:original-d="m 95.522199,144.64445 -0.124697,-84.071036 49.728828,-17.417631 49.85358,17.194148 0.12471,84.070899 -49.72883,17.67637 z"
       inkscape:path-effect="#path-effect26" />
  </g>
  <g
     inkscape:label="Camada 1"
     inkscape:groupmode="layer"
     id="layer1"
     transform="translate(-121,-77.412743)">
    <rect
       x="-125.48995"
       y="94.603043"
       width="3.25"
       height="3.25"
       fill="#336d9d"
       transform="scale(-1,1)"
       id="rect5"
       style="display:inline;stroke-width:0.216667" />
    <path
       d="m 171.40291,121.19801 c 0,-0.88758 0.71958,-1.60714 1.60714,-1.60714 0.88757,0 1.60714,0.71956 1.60714,1.60714 0,0.88756 -0.71957,1.60714 -1.60714,1.60714 -0.88756,0 -1.60714,-0.71958 -1.60714,-1.60714 z"
       stroke="#ffd742"
       stroke-width="0.285712"
       stroke-miterlimit="8"
       fill="#ffd742"
       fill-rule="evenodd"
       id="path7"
       style="display:inline" />
    <path
       d="m 146.53186,97.077715 v 5.033535 h -1.88825 V 87.051993 h 4.4284 c 1.72341,0 3.05717,0.419612 4.0013,1.258835 0.95162,0.839223 1.42743,2.023128 1.42743,3.551713 0,1.528585 -0.52826,2.779927 -1.58478,3.754026 -1.04903,0.974099 -2.46897,1.461148 -4.25981,1.461148 z m 0,-8.317303 v 6.608884 h 1.97817 c 1.30379,0 2.29663,-0.295976 2.9785,-0.887928 0.68936,-0.599445 1.03404,-1.442415 1.03404,-2.52891 0,-2.128031 -1.25883,-3.192046 -3.7765,-3.192046 z"
       id="text4"
       style="font-size:23.0187px;font-family:'Yu Gothic UI';-inkscape-font-specification:'Yu Gothic UI';fill:#ffffff;stroke-width:0.264583"
       aria-label="P"
       sodipodi:nodetypes="ccccscscscccscssc" />
    <path
       style="font-size:23.0187px;font-family:'Yu Gothic UI';-inkscape-font-specification:'Yu Gothic UI';fill:#ffffff;stroke-width:0.264583"
       d="m 155.86073,117.05201 h -2.63006 l -6.22674,-7.37318 c -0.23229,-0.27724 -0.37466,-0.46457 -0.42711,-0.56198 h -0.045 v 7.93516 h -1.88825 v -12.91043 h 1.88825 v 4.36833 h 0.045 c 0.10491,-0.16485 0.24728,-0.34843 0.42711,-0.55074 l 6.02442,-7.02475 h 2.34908 l -6.91235,7.73285 z"
       id="text5"
       aria-label="K"
       sodipodi:nodetypes="cccccccccccccccc" />
    <rect
       x="-164.99493"
       y="119.448"
       width="7.5173378"
       height="3.5"
       fill="#336d9d"
       transform="scale(-1,1)"
       id="rect5-8-9"
       style="display:inline;fill:#3b3838;fill-opacity:1;stroke-width:0.341959" />
    <rect
       style="fill:#ffd742;fill-opacity:1;stroke-width:0.215043"
       id="rect3"
       width="1.8873569"
       height="3.4999979"
       x="144.64362"
       y="118.55201" />
    <rect
       style="fill:#ffd742;fill-opacity:1;stroke-width:0.560898"
       id="rect3-7"
       width="26.31193"
       height="1.7079999"
       x="145.5873"
       y="120.34401" />
    <rect
       style="fill:#ffffff;fill-opacity:1;stroke-width:0.383857"
       id="rect2"
       width="5.3578687"
       height="1.7079694"
       x="139.6131"
       y="95.37281" />
    <rect
       x="-129.57549"
       y="94.603043"
       width="3.0272098"
       height="3.25"
       fill="#336d9d"
       transform="scale(-1,1)"
       id="rect5-8"
       style="display:inline;fill:#3b3838;fill-opacity:1;stroke-width:0.209109" />
    <rect
       style="fill:#336d9d;fill-opacity:1;stroke-width:0.611592"
       id="rect2-7"
       width="13.60117"
       height="1.7079694"
       x="124.51193"
       y="95.37281" />
  </g>
</svg>
