<?xml version="1.0" encoding="UTF-8" standalone="no"?>
<!-- Created with Inkscape (http://www.inkscape.org/) -->

<svg
   width="135mm"
   height="55mm"
   viewBox="0 0 135 55"
   version="1.1"
   id="svg1"
   inkscape:version="1.3.2 (091e20e, 2023-11-25, custom)"
   sodipodi:docname="logo_white_word.svg"
   xml:space="preserve"
   xmlns:inkscape="http://www.inkscape.org/namespaces/inkscape"
   xmlns:sodipodi="http://sodipodi.sourceforge.net/DTD/sodipodi-0.dtd"
   xmlns="http://www.w3.org/2000/svg"
   xmlns:svg="http://www.w3.org/2000/svg"><sodipodi:namedview
     id="namedview1"
     pagecolor="#ffffff"
     bordercolor="#000000"
     borderopacity="0.25"
     inkscape:showpageshadow="2"
     inkscape:pageopacity="0.0"
     inkscape:pagecheckerboard="0"
     inkscape:deskcolor="#d1d1d1"
     inkscape:document-units="mm"
     showgrid="false"
     inkscape:zoom="2.0000001"
     inkscape:cx="242.49999"
     inkscape:cy="70.749998"
     inkscape:window-width="1920"
     inkscape:window-height="1057"
     inkscape:window-x="-8"
     inkscape:window-y="-8"
     inkscape:window-maximized="1"
     inkscape:current-layer="layer9"><inkscape:grid
       id="grid1"
       units="mm"
       originx="-121"
       originy="-77.412743"
       spacingx="0.99999998"
       spacingy="1"
       empcolor="#0099e5"
       empopacity="0.30196078"
       color="#0099e5"
       opacity="0.14901961"
       empspacing="5"
       dotted="false"
       gridanglex="30"
       gridanglez="30"
       visible="false" /><inkscape:page
       x="0"
       y="0"
       width="135"
       height="55.000004"
       id="page1"
       margin="0"
       bleed="0" /></sodipodi:namedview><defs
     id="defs1"><inkscape:path-effect
       effect="fillet_chamfer"
       id="path-effect26"
       is_visible="true"
       lpeversion="1"
       nodesatellites_param="F,0,0,1,0,49.632344,0,1 @ F,0,0,1,0,0,0,1 @ F,0,0,1,0,0,0,1 @ F,0,0,1,0,0,0,1 @ F,0,1,1,0,49.632344,0,1 @ F,0,0,1,0,0,0,1"
       radius="0"
       unit="px"
       method="auto"
       mode="F"
       chamfer_steps="1"
       flexible="false"
       use_knot_distance="true"
       apply_no_radius="true"
       apply_with_radius="true"
       only_selected="false"
       hide_knots="false" /><inkscape:path-effect
       effect="fillet_chamfer"
       id="path-effect26-6"
       is_visible="true"
       lpeversion="1"
       nodesatellites_param="F,0,0,1,0,49.632344,0,1 @ F,0,0,1,0,0,0,1 @ F,0,0,1,0,0,0,1 @ F,0,0,1,0,0,0,1 @ F,0,1,1,0,49.632344,0,1 @ F,0,0,1,0,0,0,1"
       radius="0"
       unit="px"
       method="auto"
       mode="F"
       chamfer_steps="1"
       flexible="false"
       use_knot_distance="true"
       apply_no_radius="true"
       apply_with_radius="true"
       only_selected="false"
       hide_knots="false" /></defs><g
     inkscape:groupmode="layer"
     id="layer9"
     inkscape:label="Camada 3"
     transform="translate(-121,-77.412743)"><rect
       x="121"
       y="77.412743"
       width="135"
       height="55"
       fill="#3b3838"
       id="rect1"
       style="display:inline;stroke-width:0.36545;fill:#ffffff;fill-opacity:1" /></g><g
     inkscape:groupmode="layer"
     id="layer2"
     inkscape:label="Camada 4"><g
       id="g1"
       transform="translate(6.8800042)"><g
         id="g3"
         transform="matrix(0.72784809,0,0,0.72784809,-80.354961,-48.924048)"><path
           id="path23"
           style="display:inline;fill:none;stroke:#3b3838;stroke-width:4.56863;stroke-dasharray:none;stroke-opacity:1"
           inkscape:transform-center-x="-2.0141189e-06"
           inkscape:transform-center-y="-1.6337537e-05"
           d="m 95.448583,95.012161 -0.05108,-34.438747 49.728828,-17.417631 49.85358,17.194148 0.0511,34.43861 a 70.206078,70.206078 125.17349 0 1 -46.69219,66.255439 l -2.96302,1.05322 -3.00886,-1.05334 A 70.071194,70.071194 54.604576 0 1 95.448583,95.012161 Z"
           sodipodi:nodetypes="ccccccc"
           transform="matrix(0.41347186,0,0,0.41347186,88.458475,62.566022)"
           inkscape:original-d="m 95.522199,144.64445 -0.124697,-84.071036 49.728828,-17.417631 49.85358,17.194148 0.12471,84.070899 -49.72883,17.67637 z"
           inkscape:path-effect="#path-effect26" /><rect
           x="-125.48995"
           y="94.603043"
           width="3.25"
           height="3.25"
           fill="#336d9d"
           transform="scale(-1,1)"
           id="rect5"
           style="display:inline;stroke-width:0.216667" /><path
           d="m 171.40291,121.19801 c 0,-0.88758 0.71958,-1.60714 1.60714,-1.60714 0.88757,0 1.60714,0.71956 1.60714,1.60714 0,0.88756 -0.71957,1.60714 -1.60714,1.60714 -0.88756,0 -1.60714,-0.71958 -1.60714,-1.60714 z"
           stroke="#ffd742"
           stroke-width="0.285712"
           stroke-miterlimit="8"
           fill="#ffd742"
           fill-rule="evenodd"
           id="path7"
           style="display:inline" /><path
           d="m 146.53186,97.077715 v 5.033535 h -1.88825 V 87.051993 h 4.4284 c 1.72341,0 3.05717,0.419612 4.0013,1.258835 0.95162,0.839223 1.42743,2.023128 1.42743,3.551713 0,1.528585 -0.52826,2.779927 -1.58478,3.754026 -1.04903,0.974099 -2.46897,1.461148 -4.25981,1.461148 z m 0,-8.317303 v 6.608884 h 1.97817 c 1.30379,0 2.29663,-0.295976 2.9785,-0.887928 0.68936,-0.599445 1.03404,-1.442415 1.03404,-2.52891 0,-2.128031 -1.25883,-3.192046 -3.7765,-3.192046 z"
           id="text4"
           style="font-size:23.0187px;font-family:'Yu Gothic UI';-inkscape-font-specification:'Yu Gothic UI';fill:#3b3838;stroke-width:0.264583;fill-opacity:1"
           aria-label="P"
           sodipodi:nodetypes="ccccscscscccscssc" /><path
           style="font-size:23.0187px;font-family:'Yu Gothic UI';-inkscape-font-specification:'Yu Gothic UI';fill:#3b3838;stroke-width:0.264583;fill-opacity:1"
           d="m 155.86073,117.05201 h -2.63006 l -6.22674,-7.37318 c -0.23229,-0.27724 -0.37466,-0.46457 -0.42711,-0.56198 h -0.045 v 7.93516 h -1.88825 v -12.91043 h 1.88825 v 4.36833 h 0.045 c 0.10491,-0.16485 0.24728,-0.34843 0.42711,-0.55074 l 6.02442,-7.02475 h 2.34908 l -6.91235,7.73285 z"
           id="text5"
           aria-label="K"
           sodipodi:nodetypes="cccccccccccccccc" /><rect
           x="-164.99493"
           y="119.448"
           width="7.5173378"
           height="3.5"
           fill="#336d9d"
           transform="scale(-1,1)"
           id="rect5-8-9"
           style="display:inline;fill:#ffffff;fill-opacity:1;stroke-width:0.341959" /><rect
           style="fill:#ffd742;fill-opacity:1;stroke-width:0.215043"
           id="rect3"
           width="1.8873569"
           height="3.4999979"
           x="144.64362"
           y="118.55201" /><rect
           style="fill:#ffd742;fill-opacity:1;stroke-width:0.560898"
           id="rect3-7"
           width="26.31193"
           height="1.7079999"
           x="145.5873"
           y="120.34401" /><rect
           style="fill:#3b3838;fill-opacity:1;stroke-width:0.383857"
           id="rect2"
           width="5.3578687"
           height="1.7079694"
           x="139.6131"
           y="95.37281" /><rect
           x="-129.57549"
           y="94.603043"
           width="3.0272098"
           height="3.25"
           fill="#336d9d"
           transform="scale(-1,1)"
           id="rect5-8"
           style="display:inline;fill:#ffffff;fill-opacity:1;stroke-width:0.209109" /><rect
           style="fill:#336d9d;fill-opacity:1;stroke-width:0.611592"
           id="rect2-7"
           width="13.60117"
           height="1.7079694"
           x="124.51193"
           y="95.37281" /></g><g
         id="g7"
         transform="matrix(0.8109943,0,0,0.8109943,12.387506,5.1976551)"><rect
           style="fill:#3b3838;fill-opacity:1;stroke-width:0.33038"
           id="rect2-0"
           width="3.5"
           height="1.9368377"
           x="-54.293518"
           y="-29.991491"
           transform="scale(-1)" /><path
           style="font-size:26.1133px;font-family:'Yu Gothic UI';-inkscape-font-specification:'Yu Gothic UI';fill:#3b3838;stroke-width:0.136222;fill-opacity:1"
           d="m 56.348776,29.992751 v 6.910844 H 54.20667 V 18.619184 h 5.02375 c 1.955097,0 3.468173,0.476024 4.539226,1.428072 1.079554,0.952047 1.619331,2.295114 1.619331,4.0292 0,1.734087 -0.59928,3.153657 -1.79784,4.258712 -1.190059,1.105055 -2.80089,1.657583 -4.832491,1.657583 z m 0,-9.43547 v 7.497373 h 2.244112 c 1.479074,0 2.60538,-0.335767 3.378918,-1.0073 0.782039,-0.680034 1.173059,-1.636332 1.173059,-2.868893 0,-2.41412 -1.428071,-3.62118 -4.284213,-3.62118 z m 18.615928,5.406269 c -0.365519,-0.280514 -0.892545,-0.420771 -1.581079,-0.420771 -0.892545,0 -1.640582,0.420771 -2.244112,1.262313 -0.595029,0.841542 -0.892544,1.989099 -0.892544,3.442672 v 6.655831 h -2.091104 v -13.05665 h 2.091104 v 2.690384 h 0.051 c 0.297515,-0.918046 0.752287,-1.632082 1.364318,-2.142107 0.612031,-0.518526 1.296315,-0.777789 2.052852,-0.777789 0.544027,0 0.960548,0.0595 1.249563,0.178509 z m 3.340665,-5.43177 c -0.374019,0 -0.692785,-0.127506 -0.956298,-0.382519 -0.263513,-0.255013 -0.395269,-0.578029 -0.395269,-0.969049 0,-0.391019 0.131756,-0.714035 0.395269,-0.969048 0.263513,-0.263513 0.582279,-0.39527 0.956298,-0.39527 0.382519,0 0.705535,0.131757 0.969048,0.39527 0.272014,0.255013 0.408021,0.578029 0.408021,0.969048 0,0.374019 -0.136007,0.692785 -0.408021,0.956298 -0.263513,0.263513 -0.586529,0.39527 -0.969048,0.39527 z m 1.020051,16.371815 h -2.091104 v -13.05665 h 2.091104 z m 14.497475,-13.05665 -5.202259,13.05665 h -2.052853 l -4.947246,-13.05665 h 2.295114 l 3.315165,9.486472 c 0.246513,0.697035 0.39952,1.304815 0.459023,1.823341 h 0.051 c 0.085,-0.654533 0.221011,-1.245312 0.40802,-1.772338 l 3.468173,-9.537475 z m 15.249735,13.05665 h -2.98365 l -7.06383,-8.364417 c -0.263513,-0.314515 -0.425021,-0.527026 -0.484524,-0.637531 h -0.051 v 9.001948 H 96.347517 V 23.846539 h 2.142107 v 3.366573 h 0.051 c 0.119006,-0.187009 0.280514,-0.39527 0.484524,-0.624781 l 6.834322,-7.969147 h 2.66488 l -7.84164,8.772437 z M 112.2858,20.53178 c -0.37402,0 -0.69279,-0.127506 -0.9563,-0.382519 -0.26351,-0.255013 -0.39527,-0.578029 -0.39527,-0.969049 0,-0.391019 0.13176,-0.714035 0.39527,-0.969048 0.26351,-0.263513 0.58228,-0.39527 0.9563,-0.39527 0.38251,0 0.70553,0.131757 0.96904,0.39527 0.27201,0.255013 0.40802,0.578029 0.40802,0.969048 0,0.374019 -0.13601,0.692785 -0.40802,0.956298 -0.26351,0.263513 -0.58653,0.39527 -0.96904,0.39527 z m 1.02005,16.371815 h -2.09111 v -13.05665 h 2.09111 z m 10.28975,-0.127506 c -0.49302,0.272013 -1.1433,0.40802 -1.95084,0.40802 -2.28661,0 -3.42992,-1.275064 -3.42992,-3.825191 v -7.726884 h -2.24412 v -1.785089 h 2.24412 v -3.187659 l 2.0911,-0.675784 v 3.863443 h 3.28966 v 1.785089 h -3.28966 v 7.357116 c 0,0.875543 0.14876,1.500324 0.44627,1.874343 0.29752,0.374019 0.79055,0.561028 1.47908,0.561028 0.52703,0 0.9818,-0.144507 1.36431,-0.433521 z"
           id="text1"
           aria-label="  PrivKit"
           sodipodi:nodetypes="ccccscscscccscssccscscccccccsccssscscscsccccccccccccccccccccccccccccccccssscscscsccccccssccccccccccssscc" /></g></g></g></svg>
